<?xml version="1.0" encoding="UTF-8" standalone="no"?>
<svg
   xmlns:dc="http://purl.org/dc/elements/1.1/"
   xmlns:cc="http://creativecommons.org/ns#"
   xmlns:rdf="http://www.w3.org/1999/02/22-rdf-syntax-ns#"
   xmlns:svg="http://www.w3.org/2000/svg"
   xmlns="http://www.w3.org/2000/svg"
   xmlns:xlink="http://www.w3.org/1999/xlink"
   xmlns:sodipodi="http://sodipodi.sourceforge.net/DTD/sodipodi-0.dtd"
   xmlns:inkscape="http://www.inkscape.org/namespaces/inkscape"
   fill="#000000"
   height="48"
   viewBox="0 0 24 24"
   width="48"
   id="svg2"
   version="1.1"
   inkscape:version="0.91 r13725"
   sodipodi:docname="ic_linear_crossfoot_black_48px.svg"
   inkscape:export-filename="/home/54967546315/programacao/agiler/ui/png/ic_crossfoot_black_24dp_1x.png"
   inkscape:export-xdpi="45"
   inkscape:export-ydpi="45">
  <metadata
     id="metadata14">
    <rdf:RDF>
      <cc:Work
         rdf:about="">
        <dc:format>image/svg+xml</dc:format>
        <dc:type
           rdf:resource="http://purl.org/dc/dcmitype/StillImage" />
        <dc:title />
      </cc:Work>
    </rdf:RDF>
  </metadata>
  <sodipodi:namedview
     pagecolor="#ffffff"
     bordercolor="#666666"
     borderopacity="1"
     objecttolerance="10"
     gridtolerance="10"
     guidetolerance="10"
     inkscape:pageopacity="0"
     inkscape:pageshadow="2"
     inkscape:window-width="1551"
     inkscape:window-height="876"
     id="namedview12"
     showgrid="false"
     inkscape:zoom="13.906433"
     inkscape:cx="30.326408"
     inkscape:cy="22.969275"
     inkscape:window-x="49"
     inkscape:window-y="24"
     inkscape:window-maximized="1"
     inkscape:current-layer="svg2" />
  <defs
     id="defs4">
    <path
       d="M0 0h24v24H0V0z"
       id="a" />
    <clipPath
       id="b-3">
      <use
         height="100%"
         width="100%"
         y="0"
         x="0"
         style="overflow:visible"
         overflow="visible"
         xlink:href="#a"
         id="use8-6" />
    </clipPath>
  </defs>
  <clipPath
     id="b">
    <use
       overflow="visible"
       xlink:href="#a"
       id="use8" />
  </clipPath>
  <path
     d="M 37.347656 7.8007812 A 2.864809 2.922106 0 0 0 34.486328 10.677734 L 27.386719 17.777344 L 27.373047 17.763672 L 25.791016 19.345703 C 25.234806 19.130457 24.636067 19 24 19 C 22.607297 19 21.369208 19.575282 20.466797 20.486328 C 20.40842 20.535482 20.345741 20.576639 20.289062 20.628906 L 20.310547 20.650391 C 19.948753 21.049899 19.641476 21.500084 19.419922 22 L 13.580078 22 C 13.578893 21.997325 13.577362 21.994857 13.576172 21.992188 L 8.5605469 21.992188 A 2.864809 2.922106 0 0 0 6.4335938 21.021484 A 2.864809 2.922106 0 0 0 3.5683594 23.943359 A 2.864809 2.922106 0 0 0 6.4335938 26.865234 A 2.864809 2.922106 0 0 0 8.4511719 26.017578 L 13.570312 26.017578 C 13.573068 26.011432 13.577349 26.006159 13.580078 26 L 19.419922 26 C 20.199922 27.76 21.94 29 24 29 C 24.64769 29 25.257735 28.867314 25.822266 28.644531 L 28.751953 31.574219 L 28.759766 31.566406 L 34.486328 37.291016 A 2.864809 2.922106 0 0 0 37.347656 40.154297 A 2.864809 2.922106 0 0 0 40.212891 37.232422 A 2.864809 2.922106 0 0 0 37.347656 34.310547 A 2.864809 2.922106 0 0 0 37.148438 34.316406 L 32.757812 29.923828 L 32.119141 29.287109 L 32.119141 29.285156 L 28.833984 26 L 34.419922 26 C 34.420515 26.001337 34.421281 26.002569 34.421875 26.003906 L 39.589844 26.003906 A 2.864809 2.922106 0 0 0 41.619141 26.865234 A 2.864809 2.922106 0 0 0 44.484375 23.943359 A 2.864809 2.922106 0 0 0 41.619141 21.021484 A 2.864809 2.922106 0 0 0 39.488281 21.994141 L 34.423828 21.994141 C 34.422868 21.996296 34.420878 21.997843 34.419922 22 L 28.796875 22 L 32.453125 18.341797 C 32.454473 18.342317 32.455683 18.343231 32.457031 18.34375 L 37.164062 13.636719 A 2.864809 2.922106 0 0 0 37.347656 13.646484 A 2.864809 2.922106 0 0 0 40.212891 10.722656 A 2.864809 2.922106 0 0 0 37.347656 7.8007812 z "
     transform="scale(0.5,0.5)"
     id="path4183" />
</svg>
